<?xml version="1.0" encoding="UTF-8"?>
<svg version="1.1" xmlns="http://www.w3.org/2000/svg" width="400" height="240">
<path d="M0 0 C2.64 0 5.28 0 8 0 C7.84176758 1.02319336 7.68353516 2.04638672 7.52050781 3.10058594 C5.01646343 21.28782052 5.50560078 38.04465671 16.91851807 53.16873169 C27.63414307 66.180791 39.2342847 76.17812845 56.46878052 78.12245178 C72.27298728 79.56028295 88.24824105 78.61083862 104 77 C104.33 77.66 104.66 78.32 105 79 C105.99 79 106.98 79 108 79 C109.6894989 80.32873535 109.6894989 80.32873535 111.5534668 82.21289062 C112.25396652 82.91361694 112.95446625 83.61434326 113.67619324 84.33630371 C114.42629166 85.10188599 115.17639008 85.86746826 115.94921875 86.65625 C116.72183548 87.43311157 117.49445221 88.20997314 118.29048157 89.01037598 C120.76326115 91.49998527 123.2254237 93.99980958 125.6875 96.5 C127.35933845 98.18687966 129.03185599 99.87308657 130.70507812 101.55859375 C134.81130525 105.69794714 138.90885641 109.84574107 143 114 C147.98592875 109.82222235 152.66704284 105.46872723 157.24609375 100.8515625 C157.90207047 100.19417084 158.55804718 99.53677917 159.23390198 98.85946655 C161.30415268 96.78367138 163.37087651 94.70440573 165.4375 92.625 C166.85067862 91.2067992 168.26408794 89.78882824 169.67773438 88.37109375 C173.12116065 84.91671223 176.56143099 81.4592163 180 78 C180.66 78.33 181.32 78.66 182 79 C182.33 78.34 182.66 77.68 183 77 C183.65921448 77.06741394 184.31842896 77.13482788 184.99761963 77.20428467 C222.71243745 81.22166106 222.71243745 81.22166106 256.49945068 67.25637817 C269.44675775 55.88782081 279.10565907 43.46231357 280.62405396 25.91990662 C281.05177242 17.20380364 280.33148294 8.6098948 279 0 C281.64 0 284.28 0 287 0 C287 13.53 287 27.06 287 41 C286.34 41.33 285.68 41.66 285 42 C285 42.99 285 43.98 285 45 C283.53286743 46.83462524 283.53286743 46.83462524 281.45166016 48.90478516 C280.67730621 49.6821402 279.90295227 50.45949524 279.10513306 51.26040649 C278.25832977 52.09486298 277.41152649 52.92931946 276.5390625 53.7890625 C275.6781601 54.64809174 274.81725769 55.50712097 273.93026733 56.3921814 C272.10609081 58.20962611 270.27831559 60.02346475 268.44726562 61.83398438 C265.63674983 64.61338028 262.83701188 67.4032722 260.0390625 70.1953125 C258.2688503 71.95635376 256.49803699 73.71679101 254.7265625 75.4765625 C253.88380768 76.31506744 253.04105286 77.15357239 252.17276001 78.01748657 C251.39210175 78.78853729 250.61144348 79.55958801 249.80712891 80.35400391 C249.11873932 81.03556549 248.43034973 81.71712708 247.72109985 82.41934204 C245.58106823 84.3847469 244.63357622 85.01761513 241.70372009 84.93615723 C240.74180252 84.85216675 239.77988495 84.76817627 238.78881836 84.68164062 C203.82210065 80.91543589 203.82210065 80.91543589 172.67578125 93.41015625 C164.38129934 100.96472423 157.35390384 109.78205982 151 119 C151.33 119.33 151.66 119.66 152 120 C152.08790975 122.29151417 152.10694038 124.58572524 152.09765625 126.87890625 C152.09553383 127.90889992 152.09553383 127.90889992 152.09336853 128.95970154 C152.08775479 131.16067801 152.07520007 133.36155409 152.0625 135.5625 C152.05748676 137.05143083 152.05292355 138.54036324 152.04882812 140.02929688 C152.03863021 143.68626805 152.01905779 147.34302117 152 151 C146.72 151 141.44 151 136 151 C136.38285156 149.07285156 136.76570312 147.14570313 137.16015625 145.16015625 C139.12378201 130.84069562 137.83844027 119.15754696 129.06359863 107.26008606 C120.14051621 96.17282653 110.19052634 86.78960539 95.67724609 84.59228516 C84.89734986 83.51615693 74.17278814 83.66454227 63.37011719 84.28735352 C62.08712234 84.35810593 60.8041275 84.42885834 59.48225403 84.50175476 C57.05522934 84.65794083 54.63041772 84.85624624 52.21098328 85.10359192 C44.30414093 85.72115095 44.30414093 85.72115095 40.7225647 83.74064636 C38.6305507 81.94963574 36.83017508 80.05652021 35 78 C33.66275295 76.68874815 32.31950801 75.38358853 30.97070312 74.08422852 C29.57164908 72.6850191 28.17525088 71.28315008 26.78125 69.87890625 C26.03790405 69.13414536 25.29455811 68.38938446 24.52868652 67.62205505 C22.18340699 65.27123255 19.84165164 62.91693569 17.5 60.5625 C15.89867039 58.95614801 14.29711002 57.35002603 12.6953125 55.74414062 C8.79420527 51.83208015 4.8959758 47.91717048 1 44 C1.33 43.34 1.66 42.68 2 42 C1.34 41.67 0.68 41.34 0 41 C0 27.47 0 13.94 0 0 Z " fill="#00d9ff" transform="translate(37,60)"/>
<path d="M0 0 C1.98 0 3.96 0 6 0 C6.17439217 4.26820052 6.30067865 8.53446112 6.38452148 12.80517578 C6.41950365 14.25443684 6.46710991 15.70345481 6.52807617 17.15185547 C7.08502336 30.73387861 7.08502336 30.73387861 3.0859375 35.19140625 C2.44229248 35.77809082 1.79864746 36.36477539 1.13549805 36.96923828 C-0.98909102 38.98962606 -2.57083282 41.13387778 -4.22563171 43.54492188 C-10.32719194 52.26177784 -18.01582846 62.15810577 -28.84124756 64.65545654 C-38.75169229 65.99123866 -48.74551271 65.62062424 -58.69458008 64.94897461 C-69.48170394 63.78379477 -69.48170394 63.78379477 -79.29394531 67.19482422 C-81.59132014 70.01754547 -83.29582174 72.79236025 -85 76 C-86.59960937 77.95361328 -86.59960937 77.95361328 -88.109375 79.5234375 C-89.88239115 81.43808512 -91.65319593 83.35478272 -93.421875 85.2734375 C-95.90452754 87.89903064 -98.43140326 90.45912193 -101 93 C-102.32 91.68 -103.64 90.36 -105 89 C-104.45472656 88.40574219 -103.90945312 87.81148438 -103.34765625 87.19921875 C-99.25674987 82.70271823 -95.26627425 78.16009959 -91.4375 73.4375 C-80.23011364 59.61505682 -80.23011364 59.61505682 -77 58 C-75.53032953 58.01252742 -74.06096831 58.09288056 -72.59570312 58.20727539 C-41.58476546 61.17526269 -41.58476546 61.17526269 -14.23388672 49.20043945 C-4.28601807 39.53623473 0.77321366 29.94932263 1.12985229 15.97320557 C1.11745523 10.61252676 0.7008716 5.31574308 0 0 Z " fill="#00d9ff" transform="translate(287,70)"/>
<path d="M0 0 C1.98 0 3.96 0 6 0 C5.89413574 0.8029248 5.78827148 1.60584961 5.67919922 2.43310547 C4.08771253 17.02622916 4.37406047 30.51311868 13.83569336 42.43359375 C21.93635621 51.72709931 29.82728313 57.18240488 42.32096863 58.46408081 C53.3637405 59.19863682 64.44659498 58.96998647 75.47470093 58.05761719 C82.3187697 57.58766917 82.3187697 57.58766917 86.02758789 59.83251953 C88.15149741 62.16648026 90.17934571 64.51429718 92.125 67 C96.38764275 72.33545552 100.92484456 77.31372459 105.6171875 82.2734375 C107.77843136 84.74646736 109.42380552 87.12944714 111 90 C109.35 90.99 107.7 91.98 106 93 C100.15488332 86.69117887 94.50620108 80.30318746 89.10546875 73.60546875 C88.41066406 72.74566406 87.71585937 71.88585937 87 71 C86.34475342 69.95038086 85.68950684 68.90076172 85.0144043 67.81933594 C83.30607036 65.79069546 82.47795691 65.07766745 79.83323669 64.64790344 C77.08475126 64.7260988 74.39688559 64.98190504 71.6640625 65.28515625 C69.55991059 65.4318008 67.45492591 65.56685398 65.34936523 65.69165039 C64.25002655 65.75756378 63.15068787 65.82347717 62.01803589 65.89138794 C47.22251447 66.63753158 33.6127217 67.17944353 21.83203125 57.125 C13.89116925 49.8388327 4.86572365 40.73144729 0 31 C-0.08586809 28.67583704 -0.10711043 26.34916693 -0.09765625 24.0234375 C-0.09553383 22.99556625 -0.09553383 22.99556625 -0.09336853 21.94692993 C-0.08776675 19.75624239 -0.07521406 17.5656567 -0.0625 15.375 C-0.05748522 13.89062648 -0.05292228 12.40625135 -0.04882812 10.921875 C-0.03779677 7.28121685 -0.02053099 3.64061836 0 0 Z " fill="#00d9ff" transform="translate(68,70)"/>
</svg>
